<svg xmlns="http://www.w3.org/2000/svg" viewBox="0 0 146.32 77.363" role="img" aria-label="FS1">
  <!-- Source: Wikimedia Commons File:2015 Fox Sports 1 logo.svg -->
  <path d="m0 0h146.32v77.363h-146.32z" fill="#002e56"/>
  <g fill="#fff">
    <path d="m54.552 37.797 6.376 6.451h17.248l1.125 1.125v6.451l-1.5 1.5h-16.13l-8.94 8.968v2.199h36.195l7.341-7.341v-17.703l-6.377-6.376h-17.252l-1.125-1.2v-6.451l1.427-1.498h18.901l4.275-4.053v-6.977h-30.081l-11.483 11.52z"/>
    <path d="m29.599 64.49v-17.511l-2.758-2.779h20.19v-11.126h-17.432v-9.152h17.622l10.996-11.029h-45.631v51.597z"/>
    <path d="m114.16 33.3v31.19h19.243v-51.588h-18.748l-10.956 10.905v6.305h13.635z"/>
  </g>
</svg>
