<svg xmlns="http://www.w3.org/2000/svg" viewBox="0 0 874 449" role="img" aria-label="SEC Network">
  <!-- Source: Wikimedia Commons File:SEC Network (2024).svg -->
  <path fill="#1d366c" fill-rule="evenodd" d="m371.26,399.98c-40.85,33.5-92.18,49.02-144.93,49.02C101.68,449,0,348.82,0,224.5S101.68,0,226.33,0c55.91,0,109.44,20.31,151.02,57.29h496.65v342.7h-502.74Z"/>
  <path fill="#fdd540" fill-rule="evenodd" d="m365.75,386.01c-38.73,33.62-88.34,53.02-139.42,53.02-116.37,0-211.29-97.49-211.29-213.53S109.96,12.97,226.33,12.97c54.16,0,105.83,20.38,145.16,57.28h488.46v315.76h-494.21Z"/>
  <path fill="#1d366c" fill-rule="evenodd" d="m362.08,374.39c-35.83,32.36-83.46,52.02-135.75,52.02-111.36,0-198.63-89.5-198.63-199.91S117.64,26.59,226.33,26.59c55.02,0,104.9,21.86,141.28,57.29h481.69v290.51h-487.22Z"/>
  <path fill="#fff" d="m171,59c-87,28-112,113-112,113h0c-.03.11-3.97,10.9-4,11l40.89,43.87c.01-.19,32.11,37.13,32.11,37.13v55c-14.91-16.05-24-28-31-50l-34.88,23.82c24.88,55.18,52.43,84.16,107.88,102.18v-152l-63-68c4-14,21.95-34.36,31-44l1,41h32V59Z"/>
  <path fill="#fff" d="m228.86,48.5c-12.75,0-27.19,1.36-39.18,3.93v345.02c11.99,2.57,26.42,3.93,39.18,3.93,15.43,0,30.39-2,44.66-5.71v-53.7c-12.82,4.69-17.58,7.39-31.92,7.81v-90.9h26.92v-64.12h-26.92v-77.65c14.33.4,19.1,3.12,31.92,7.81V54.22c-14.27-3.72-29.22-5.72-44.66-5.72"/>
  <path fill="#fff" d="m294,62.15v328.59c49.76-18.94,86.62-60.42,102-113.74l-35-27c-4,19-13.73,44.67-25,59.05v-163.22c13,13.17,20.31,40.77,25,58.17l35-27c-15.99-51.83-53.23-95.29-102-113.85"/>
  <path fill="#fff" fill-rule="evenodd" d="m650.51,206h-31.86l7.24-57.69h90c-.65,6.15-.65,21.28-26.82,20.74h-33.95l-4.6,36.95Zm69.28-57.69l-7.38,57.69h32.41l7.16-57.69h-32.19Zm62.45,0l-7.38,57.69h32.41l7.17-57.69h-32.2Zm-268.26,57.69l3.36-26.26h-51.93l1.68-10.69h51.54l2.63-20.74h-83.44l-6.83,57.69h82.98Zm8.6-67.74l3.28-26.26h-83.65l-3.25,26.26h83.62Zm32.9-26.26c-17.49,0-25.8,6.97-28.08,26.26h189.62c1.62-16.05-1.79-26.26-22.2-26.26h-139.34Zm25.61,94c21.72,0,32.16-5.69,34.82-21.87l2.9-20.27c1.62-11.99-7.65-15.55-13.99-15.55h-78.58c-2.44,21.38,10.35,21.13,16.84,20.74h43.86l-1.31,10.69h-63.41l-3.3,26.26h62.17Zm234.46-67.74c1.63-16.05-.48-26.26-18.7-26.26h-72.68l-3.09,26.26h94.47Z"/>
  <path fill="#f2ce56" d="m429,227h385v14h-385v-14Z"/>
  <path fill="#f2ce56" d="m431.08,346.45v-85.15h13.56l17.81,48.71h.24v-48.71h13.21v85.15h-12.74l-18.63-53.19h-.24v53.19h-13.21Z"/>
  <path fill="#f2ce56" d="m485.46,346.45v-85.15h39.15v12.74h-24.53v21.94h18.87v12.74h-18.87v25h26.18v12.74h-40.81Z"/>
  <path fill="#f2ce56" d="m546.72,274.04h-14.15v-12.74h42.93v12.74h-14.15v72.41h-14.62v-72.41Z"/>
  <path fill="#f2ce56" d="m612.87,261.3h12.03l9.91,54.25h.24l8.14-54.25h13.68l-14.98,85.15h-12.27l-10.61-56.25h-.24l-9.91,56.25h-12.27l-16.16-85.15h13.68l8.96,54.25h.24l9.55-54.25Z"/>
  <path fill="#f2ce56" d="m661.59,281.94c0-12.03,7.08-21.82,22.41-21.82s22.41,9.79,22.41,21.82v43.87c0,12.03-7.08,21.82-22.41,21.82s-22.41-9.79-22.41-21.82v-43.87Zm14.62,43.52c0,6.37,1.89,9.43,7.78,9.43s7.78-3.07,7.78-9.43v-43.16c0-6.37-1.89-9.44-7.78-9.44s-7.78,3.07-7.78,9.44v43.16Z"/>
  <path fill="#f2ce56" d="m730.59,346.45h-14.62v-85.15h20.52c16.39,0,24.77,6.96,24.77,25.12,0,13.68-5.31,19.22-10.26,21.46l12.38,38.56h-14.86l-10.38-35.26c-1.89.24-4.95.35-7.55.35v34.91Zm0-46.94h5.19c7.9,0,10.85-2.95,10.85-13.09s-2.95-13.09-10.85-13.09h-5.19v26.18Z"/>
  <path fill="#f2ce56" d="m770.64,346.45v-85.15h14.62v31.49h.24l15.33-31.49h14.62l-15.8,31.72,17.81,53.42h-14.86l-11.91-39.63h-.24l-5.19,9.43v30.19h-14.62Z"/>
</svg>
